<?xml version="1.0" encoding="iso-8859-1"?>
<!DOCTYPE svg PUBLIC "-//W3C//DTD SVG 1.1//EN" "http://www.w3.org/Graphics/SVG/1.1/DTD/svg11.dtd">
<svg xmlns="http://www.w3.org/2000/svg" viewBox="0 0 252.35 252.35" width="512" height="512"><?xml-stylesheet type="text/css" href="css/styles.css" ?><path d="M115.52 151.46L216.4 252.35H14.62l100.9-100.9zm111.5-36.6v126.88l-100.9-100.89 20.16-20.16-1.15-1.4a295.87 295.87 0 0 1-8.26-10.4L4.02 241.74V34.35a5 5 0 0 1 5-5h121.45A64.05 64.05 0 0 1 184.27 0a64.14 64.14 0 0 1 64.06 64.06c0 22.31-10.68 37.6-21.31 50.8zM102.38 80.44H65.32v14.12h21.83a22.98 22.98 0 0 1-21.83 15.88A22.96 22.96 0 0 1 42.38 87.5 22.97 22.97 0 0 1 79.3 69.3l8.6-11.18a36.71 36.71 0 0 0-22.58-7.68c-20.44 0-37.06 16.63-37.06 37.06s16.62 37.06 37.06 37.06a37.1 37.1 0 0 0 37.06-37.06v-7.06zm130.95-16.38a49.07 49.07 0 0 0-98.13 0c0 40.74 46.06 52.41 46.06 100.94h6.01c0-48.53 46.06-60.2 46.06-100.94zm-49.06-22.44a19.12 19.12 0 1 0 0 38.24 19.12 19.12 0 0 0 0-38.23z" fill="#474745"/></svg>