<svg xmlns="http://www.w3.org/2000/svg" viewBox="0 0 38.91 38.91"><defs><style>.f9ddd0ac-3c73-4dc1-b854-01562da0fcfe{fill:#af5729;}</style></defs><title>logo-icon</title><g id="b6be661f-6818-4805-be9d-506dacab147a" data-name="Layer 2"><g id="e7c72ac9-c74c-4d66-8c85-2dc4cc6e25fe" data-name="Layer 6"><path class="f9ddd0ac-3c73-4dc1-b854-01562da0fcfe" d="M22.1,15.88H19.67v6.7h2.41a3.16,3.16,0,0,0,2.41-.92,3.4,3.4,0,0,0,.89-2.47,3.32,3.32,0,0,0-.86-2.43A3.18,3.18,0,0,0,22.1,15.88Z"/><path class="f9ddd0ac-3c73-4dc1-b854-01562da0fcfe" d="M0,0V38.91H38.91V0ZM26,22.81a5.83,5.83,0,0,1-3.88,1.27H19.67v6.37H17.62V24.06H11.7V10.78a.88.88,0,0,1,0-.23l-.09-.48-.14-.49c0-.06,0-.15,0-.26h2.37V22.59h3.86V15.82l-.34-1.46H22.1a6.08,6.08,0,0,1,4,1.19,4.37,4.37,0,0,1,1.45,3.59A4.51,4.51,0,0,1,26,22.81Z"/></g></g></svg>