<svg xmlns="http://www.w3.org/2000/svg" viewBox="0 0 253.07 18.65">
    <title>
        logo
    </title>
    <g id="96287285-9adf-446c-be21-626c78ed1eb0" data-name="Layer 2">
        <g id="c72079cc-0ca9-4b8e-85ee-d02c2c078876" data-name="Layer 6">
            <path class="svg-fill-opposite" d="M2.7 0v16.61h7.71v1.74H.35V1.66v-.25L.2.86.05.3A2.6 2.6 0 0 1 0 0zM25.91 1.66L25.53 0h2.77v12.2a5.09 5.09 0 0 0 1.09 3.48 4.2 4.2 0 0 0 3.33 1.23 4.42 4.42 0 0 0 3.48-1.37 5.35 5.35 0 0 0 1.22-3.7V0h1.95v11.84a6.81 6.81 0 0 1-1.77 5 6.71 6.71 0 0 1-5 1.78 7 7 0 0 1-5-1.64 6.3 6.3 0 0 1-1.74-4.81zM56 0h3.12L68 13.73V0h2v18.47h-1.53L58.27 2.85v15.5h-1.92V1.66a1.52 1.52 0 0 1-.05-.25l-.13-.55-.1-.56A2.27 2.27 0 0 0 56 0zM87.32 18.35h-2.11L91.58 0h2.3l6.35 18.35h-2.6l-2.12-6.3h-6zm5.2-15.28l-2.47 7.26h4.88zM165.37 1.66L165 0h5.49A6.87 6.87 0 0 1 175 1.36a5 5 0 0 1 1.66 4.1 5.16 5.16 0 0 1-1.73 4.18 6.63 6.63 0 0 1-4.42 1.45h-2.8v7.26h-2.34zm2.34.08v7.64h2.75a3.61 3.61 0 0 0 2.74-1.05 3.91 3.91 0 0 0 1-2.82 3.81 3.81 0 0 0-1-2.78 3.7 3.7 0 0 0-2.76-1zM192.13 0h2.7v18.35h-2.35V1.66v-.25l-.12-.55-.16-.56a1.28 1.28 0 0 0-.07-.3zM211.48 0h3.13l8.92 13.73V0h1.92v18.47H224L213.75 2.85v15.5h-1.91V1.66a.89.89 0 0 1-.05-.25l-.13-.55-.1-.56a1.09 1.09 0 0 0-.08-.3zM253.07 0v1.74h-8.32v6.32h6.45v1.72h-6.45v6.83h8.32v1.74h-10.66V1.66a.89.89 0 0 1 0-.25l-.1-.55-.21-.56V0zM126.52 11.34a4.58 4.58 0 0 1-4.7-4.66 4.72 4.72 0 0 1 9.43 0 4.63 4.63 0 0 1-4.73 4.66zm0-7.88a3.05 3.05 0 0 0-3 3.2 3.1 3.1 0 0 0 3.07 3.22 3.05 3.05 0 0 0 3-3.2 3.1 3.1 0 0 0-3.07-3.22zM143.42 2H145v9h-1.33l-5-6.41V11h-1.56V2h1.47l4.83 6.23zM123.05 13.97h6.84v1.38h-6.84z"/>
        </g>
    </g>
</svg>
